<svg xmlns="http://www.w3.org/2000/svg" xmlns:xlink="http://www.w3.org/1999/xlink" width="16" height="16" viewBox="0 0 16 16">
  <defs>
    <clipPath id="clip-path">
      <rect id="Rectangle_17331" data-name="Rectangle 17331" width="16" height="16" fill="none"/>
    </clipPath>
    <clipPath id="clip-V1">
      <rect width="16" height="16"/>
    </clipPath>
  </defs>
  <g id="V1" clip-path="url(#clip-V1)">
    <rect width="16" height="16" fill="#fff"/>
    <g id="Group_11986" data-name="Group 11986" transform="translate(0.269 0.269)">
      <g id="Group_11985" data-name="Group 11985" transform="translate(-0.269 -0.269)" clip-path="url(#clip-path)">
        <path id="Path_75224" data-name="Path 75224" d="M207.745,0q3.585,0,7.17,0c.106,0,.127.021.127.127q-.006,3.585,0,7.17c-.116-.033-.048-.144-.089-.209-.013-.056-.027-.113-.038-.169a1.608,1.608,0,0,1-.01-.173,1.926,1.926,0,0,0-.048-.285c-.039-.1-.034-.2-.064-.3-.07-.177-.072-.373-.152-.547-.054-.118-.058-.252-.121-.368-.023-.045-.041-.093-.061-.14s-.04-.106-.063-.158-.049-.1-.069-.154a.807.807,0,0,0-.089-.212,1.671,1.671,0,0,1-.129-.251,2.162,2.162,0,0,0-.268-.489,2.415,2.415,0,0,0-.308-.461c-.13-.138-.2-.319-.342-.452a.465.465,0,0,1-.121-.135A1.059,1.059,0,0,0,213,2.7a.38.38,0,0,0-.045-.035.908.908,0,0,1-.147-.134,1.317,1.317,0,0,0-.123-.162,1.757,1.757,0,0,0-.154-.129.359.359,0,0,1-.091-.083.535.535,0,0,0-.152-.16.73.73,0,0,1-.1-.079.442.442,0,0,0-.128-.1.494.494,0,0,1-.148-.1c-.042-.033-.086-.062-.126-.1a1.132,1.132,0,0,1-.126-.1.743.743,0,0,0-.159-.123,3.167,3.167,0,0,0-.432-.259A3.492,3.492,0,0,1,210.683.9a1.422,1.422,0,0,0-.322-.14C210.172.7,210,.6,209.807.542a1.183,1.183,0,0,0-.353-.124,12.95,12.95,0,0,0-1.594-.339c-.046-.008-.109,0-.114-.074" transform="translate(-199.093 0.049)" fill="#fefefe"/>
        <path id="Path_75225" data-name="Path 75225" d="M215.039,208.485q0,3.569,0,7.139c0,.106-.021.127-.127.127q-3.585-.006-7.17,0c.015-.087.091-.07.145-.077a8.719,8.719,0,0,0,1.363-.266c.1-.03.193-.073.293-.1a2.585,2.585,0,0,0,.508-.177c.125-.05.243-.12.371-.162a.949.949,0,0,0,.193-.093c.149-.072.286-.166.434-.241a1.857,1.857,0,0,0,.393-.234.492.492,0,0,1,.049-.038c.074-.049.143-.1.213-.158s.155-.115.232-.174l.047-.04a.387.387,0,0,1,.088-.05.324.324,0,0,0,.115-.105c.04-.045.091-.077.132-.121s.106-.079.154-.124c.025-.023.048-.047.072-.071a1.465,1.465,0,0,0,.2-.191.532.532,0,0,1,.042-.045l.042-.042.083-.084c.033-.032.066-.064.1-.1.045-.049.077-.109.125-.156a1.075,1.075,0,0,0,.147-.175.7.7,0,0,0,.1-.128,1.657,1.657,0,0,0,.133-.183c.022-.034.048-.064.073-.1s.029-.044.043-.066c.043-.06.083-.122.121-.185a4.338,4.338,0,0,0,.224-.378,1.718,1.718,0,0,1,.135-.267.661.661,0,0,0,.091-.187,1.561,1.561,0,0,1,.1-.187c.041-.068.058-.146.093-.216a1.6,1.6,0,0,0,.11-.284c.022-.1.067-.185.1-.279a1.375,1.375,0,0,0,.09-.336,1.773,1.773,0,0,0,.119-.466,3.749,3.749,0,0,0,.09-.5,1.744,1.744,0,0,1,.07-.42c.006-.033.017-.072.067-.067" transform="translate(-199.093 -199.802)" fill="#fefefe"/>
        <path id="Path_75226" data-name="Path 75226" d="M0,7.266Q0,3.7,0,.135C0,.023.023,0,.135,0Q3.7.006,7.266,0C7.215.119,7.1.09,7.014.1a8.317,8.317,0,0,0-1.42.313,3.1,3.1,0,0,0-.362.119c-.191.053-.366.146-.55.218C4.561.8,4.445.866,4.327.925a2.967,2.967,0,0,0-.361.192c-.135.074-.265.158-.394.242-.029.018-.056.037-.083.056a1.058,1.058,0,0,0-.125.093l-.114.074c-.044.028-.081.066-.125.094s-.1.089-.156.125a.934.934,0,0,0-.123.108.6.6,0,0,1-.066.051,1.439,1.439,0,0,0-.18.169,1.427,1.427,0,0,0-.136.149.587.587,0,0,0-.116.075c-.052.055-.09.123-.147.173s-.085.082-.127.124C2.05,2.674,2.027,2.7,2,2.72s-.025.031-.037.047c-.051.084-.13.145-.18.229a3.8,3.8,0,0,0-.306.407,3.414,3.414,0,0,0-.278.423c-.046.062-.08.131-.122.2S1,4.183.954,4.263a1,1,0,0,0-.12.221c-.047.129-.118.247-.169.375C.646,4.914.617,4.965.6,5.02s-.057.135-.076.206c-.044.12-.081.243-.121.365-.035.084-.052.173-.078.26a1.7,1.7,0,0,0-.047.174c-.013.044-.021.089-.032.134-.024.1-.04.2-.059.3S.149,6.688.131,6.8A1.241,1.241,0,0,0,.1,7.024c-.034.08.013.195-.1.242" transform="translate(0.051 0.051)" fill="#fefefe"/>
        <path id="Path_75227" data-name="Path 75227" d="M7.268,215.758q-3.569,0-7.139,0c-.106,0-.127-.021-.127-.127q.006-3.569,0-7.139c.073,0,.065.065.076.11.031.122.03.249.055.373s.039.247.061.371c.012.087.031.172.05.257.013.053.024.106.038.158.025.112.064.22.093.332.026.094.061.185.091.277.017.055.034.11.054.164a1.03,1.03,0,0,0,.06.156c.013.032.022.065.037.1.031.069.051.142.087.209.02.044.041.087.064.129a.857.857,0,0,1,.042.1,1.433,1.433,0,0,0,.146.277,2.833,2.833,0,0,0,.183.334c.058.1.116.2.181.3.012.016.023.033.034.05.02.034.043.067.066.1.049.073.106.14.154.213s.1.135.149.2a1.043,1.043,0,0,1,.067.08.82.82,0,0,0,.119.141,1.15,1.15,0,0,0,.125.155q.049.051.1.1l.115.115a.612.612,0,0,1,.042.045c.057.078.14.129.2.2l.071.072q.063.065.129.127a1.179,1.179,0,0,0,.145.117,1.175,1.175,0,0,0,.123.109c.033.023.064.049.1.074l.05.034a2.206,2.206,0,0,0,.234.174c.057.04.11.086.169.124l.052.033a.387.387,0,0,1,.035.021,4.053,4.053,0,0,0,.39.238,4,4,0,0,0,.436.231c.064.033.129.067.195.1.132.068.27.121.407.178.156.054.307.121.467.163a7.807,7.807,0,0,0,1.521.336c.087.011.2-.018.251.1" transform="translate(0.049 -199.812)" fill="#fefefe"/>
        <path id="Path_75228" data-name="Path 75228" d="M.17,103.251c-.06-.16-.014-.341-.1-.5v-.031a.38.38,0,0,1,.268-.049H4.028c.331,0,.331,0,.346-.331,0-.076,0-.152,0-.228,0-.046,0-.092,0-.138,0-.073,0-.146,0-.219,0-.092,0-.184,0-.276,0-.111,0-.223,0-.334,0-.074,0-.148,0-.222s0-.166,0-.249,0-.184,0-.275c0-.073,0-.146,0-.219s0-.128,0-.192c0-.083,0-.166,0-.249,0-.13,0-.26,0-.391,0-.074,0-.147,0-.221,0-.055,0-.109,0-.164q0-.137,0-.273a1.035,1.035,0,0,1,.016-.279.084.084,0,0,1,.039-.042.055.055,0,0,1,.046.033.656.656,0,0,1,.024.26q0,1.883,0,3.766c0,.052,0,.1,0,.155,0,.1.039.151.146.151,1.038,0,2.077.005,3.115,0a.7.7,0,0,0,.092-.011,1.06,1.06,0,0,1,.33,0,1.618,1.618,0,0,0,.247.016H11.3c.237,0,.241,0,.241-.244q0-2.007,0-4.013a.516.516,0,0,1,.034-.273c.047-.042.061,0,.073.031a.42.42,0,0,1,.018.192c0,.094,0,.187,0,.281,0,.063,0,.127,0,.19s0,.107,0,.16,0,.125,0,.187c0,.036,0,.073,0,.109,0,.141,0,.282,0,.422,0,.163,0,.325,0,.488,0,.142,0,.284,0,.425,0,.055,0,.111,0,.166s0,.127,0,.19,0,.144,0,.216,0,.127,0,.191c0,.092,0,.183,0,.275s0,.184,0,.276c0,.065,0,.13,0,.2s0,.134,0,.2c.014.273.014.273.3.273H15.7a.38.38,0,0,1,.268.049v.031a2.044,2.044,0,0,0-.1.5.273.273,0,0,1-.205.05l-3.827,0a.4.4,0,0,1-.3-.1.526.526,0,0,0-.2-.022H4.659a.71.71,0,0,0-.139.009c-.061.007-.078.076-.131.095a.638.638,0,0,1-.215.02H.422a.344.344,0,0,1-.252-.05" transform="translate(-0.02 -94.071)" fill="#3c7db7"/>
        <path id="Path_75229" data-name="Path 75229" d="M4.416,196.821c.009.4.009.4-.4.4H.073v-.093c.022-.021.014-.048.016-.073s0-.04,0-.06c-.006-.038.014-.08-.016-.115v-.062a.283.283,0,0,1,.205-.05q1.966,0,3.933,0a.275.275,0,0,1,.205.05" transform="translate(-0.019 -188.573)" fill="#3980b9"/>
        <path id="Path_75230" data-name="Path 75230" d="M133.835,371.976a2.111,2.111,0,0,0-.522-.09,6.453,6.453,0,0,1-1.278-.316c0-.077.057-.09.114-.1a.85.85,0,0,1,.17-.009h4.4a.836.836,0,0,1,.17.009c.057.012.114.025.113.1a7.352,7.352,0,0,1-1.723.372c-.037,0-.085-.017-.108.033h-.124a.071.071,0,0,0-.093,0h-.869c-.017-.019-.04-.015-.062-.016s-.045,0-.062.016Z" transform="translate(-126.518 -356.031)" fill="#6956a3"/>
        <path id="Path_75231" data-name="Path 75231" d="M283.317,198.667h-4.1c-.276,0-.242.037-.245-.248,0-.031,0-.062,0-.093a.276.276,0,0,1,.206-.05q1.955,0,3.911,0a.427.427,0,0,1,.168.022c.08.041.016.129.059.183Z" transform="translate(-267.371 -190.016)" fill="#3980b9"/>
        <path id="Path_75232" data-name="Path 75232" d="M4.417,168.333v.341a.275.275,0,0,1-.205.05q-1.966,0-3.933,0a.283.283,0,0,1-.205-.05v-.093c.068-.071.02-.171.064-.248a.276.276,0,0,1,.205-.05q1.935,0,3.869,0a.275.275,0,0,1,.2.05" transform="translate(-0.02 -161.264)" fill="#3087bc"/>
        <path id="Path_75233" data-name="Path 75233" d="M134.284.448A7.8,7.8,0,0,1,135.9.108c.033,0,.075.012.092-.034h.155a.04.04,0,0,0,.062,0h.155a.318.318,0,0,0,.217,0h.528c.017.019.04.015.062.016s.045,0,.062-.016h.093a.861.861,0,0,0,.378.082A6.7,6.7,0,0,1,139,.44a.361.361,0,0,0,.06.009c-.009.082-.075.09-.135.1a.86.86,0,0,1-.17.008h-4.169a.86.86,0,0,1-.17-.008c-.06-.012-.126-.02-.135-.1" transform="translate(-128.673 -0.02)" fill="#02aed0"/>
        <path id="Path_75234" data-name="Path 75234" d="M279.019,176.109q0-.14,0-.279a.275.275,0,0,1,.2-.05h3.931a.35.35,0,0,1,.207.051v.062a.071.071,0,0,0,0,.093v.124a.284.284,0,0,1-.205.05q-1.966,0-3.933,0a.275.275,0,0,1-.205-.05" transform="translate(-267.416 -168.45)" fill="#3384bb"/>
        <path id="Path_75235" data-name="Path 75235" d="M.074,177.755H4.417q0,.14,0,.279a.276.276,0,0,1-.205.05q-1.952,0-3.905,0a.467.467,0,0,1-.168-.02c-.063-.019-.036-.086-.065-.123Z" transform="translate(-0.02 -170.345)" fill="#3384bb"/>
        <path id="Path_75236" data-name="Path 75236" d="M279.02,183.754h4.343v.062c-.04.069.007.15-.031.219a.232.232,0,0,1-.175.047c-.718,0-1.435.006-2.153,0-.6.009-1.207,0-1.811,0a.233.233,0,0,1-.174-.049v-.279" transform="translate(-267.417 -176.095)" fill="#3483ba"/>
        <path id="Path_75237" data-name="Path 75237" d="M4.416,191.807H.073v-.217a.283.283,0,0,1,.206-.05c1.311,0,2.622,0,3.933,0a.276.276,0,0,1,.205.049q0,.109,0,.217" transform="translate(-0.019 -183.559)" fill="#3682ba"/>
        <path id="Path_75238" data-name="Path 75238" d="M283.361,171.108h-4.343v-.186a.372.372,0,0,1,.268-.049q1.815,0,3.63,0a3.115,3.115,0,0,0,.387-.019c.052.066-.011.163.059.224Z" transform="translate(-267.415 -163.728)" fill="#3087bc"/>
        <path id="Path_75239" data-name="Path 75239" d="M4.417,186.879H.074v-.248a.049.049,0,0,1,.056.008c.078.081.18.066.276.066H4.15a.372.372,0,0,1,.267.049v.124" transform="translate(-0.02 -178.848)" fill="#3682ba"/>
        <path id="Path_75240" data-name="Path 75240" d="M326.069,189.538q1.076,0,2.152,0c.059,0,.125.024.176-.03.01-.014.021-.014.031,0v.186a.129.129,0,0,1-.065.062.653.653,0,0,1-.214.019h-1.836a.438.438,0,0,1-.241-.036.146.146,0,0,1,0-.2" transform="translate(-312.482 -181.6)" fill="#3682ba"/>
        <path id="Path_75241" data-name="Path 75241" d="M184.721.074a.179.179,0,0,1-.217,0Z" transform="translate(-176.814 -0.02)" fill="#16b7d5"/>
        <path id="Path_75242" data-name="Path 75242" d="M383.165,185.44h-.031c.01-.062-.026-.132.031-.186Z" transform="translate(-367.219 -177.533)" fill="#458dc0"/>
        <path id="Path_75243" data-name="Path 75243" d="M382.971,198.715c-.056-.042-.021-.1-.032-.155a.025.025,0,0,1-.009-.023c0-.008,0-.013.006-.013a.026.026,0,0,1,.035,0Z" transform="translate(-367.025 -190.25)" fill="#6fa3cc"/>
        <path id="Path_75244" data-name="Path 75244" d="M.1,182.441H.074v-.186c.039.021.03.059.033.093a.066.066,0,0,1,0,.092" transform="translate(-0.02 -174.658)" fill="#5a9bc7"/>
        <path id="Path_75245" data-name="Path 75245" d="M382.462,194.436h-.03a.11.11,0,0,1,0-.157l.031-.031Z" transform="translate(-366.516 -186.157)" fill="#488bbf"/>
        <path id="Path_75246" data-name="Path 75246" d="M.074,199.5c.045.034.028.082.028.126q-.015.019-.028,0Z" transform="translate(-0.02 -191.188)" fill="#71a4cc"/>
        <path id="Path_75247" data-name="Path 75247" d="M383.179,178.6c-.039-.031-.047-.062,0-.093Z" transform="translate(-367.233 -171.065)" fill="#a2c7e0"/>
        <path id="Path_75248" data-name="Path 75248" d="M202.5,383.191c.031-.039.062-.046.093,0Z" transform="translate(-194.062 -367.245)" fill="#b2a6ce"/>
        <path id="Path_75249" data-name="Path 75249" d="M179.318.074c-.021.034-.041.039-.062,0Z" transform="translate(-171.784 -0.02)" fill="#80d8e8"/>
        <path id="Path_75250" data-name="Path 75250" d="M.074,202.5H.1l0,.062q-.014.019-.027,0Z" transform="translate(-0.02 -194.062)" fill="#90b7d7"/>
        <path id="Path_75251" data-name="Path 75251" d="M.074,204H.1c0,.026,0,.05-.027.061Z" transform="translate(-0.02 -195.499)" fill="#a9c7e0"/>
        <path id="Path_75252" data-name="Path 75252" d="M203.8.074c-.01.032-.035.029-.061.026s-.015-.011-.012-.017.007-.009.01-.009Z" transform="translate(-195.237 -0.02)" fill="#90ddeb"/>
        <path id="Path_75253" data-name="Path 75253" d="M202.559.074q0,.013,0,.026c-.027,0-.05,0-.063-.026Z" transform="translate(-194.062 -0.02)" fill="#71d3e5"/>
        <path id="Path_75254" data-name="Path 75254" d="M178.506,383.279c.01-.031.035-.029.061-.027s.015.011.012.017-.007.009-.01.009Z" transform="translate(-171.065 -367.333)" fill="#c0b6d7"/>
        <path id="Path_75255" data-name="Path 75255" d="M179.976,383.274c0-.009,0-.018,0-.027a.051.051,0,0,1,.063.027Z" transform="translate(-172.473 -367.328)" fill="#aea0cc"/>
        <path id="Path_75256" data-name="Path 75256" d="M42.53,66.436a.86.86,0,0,1,.2-.239,2.581,2.581,0,0,0,.31.012q5.672,0,11.344,0a1.245,1.245,0,0,1,.339.007l.109.135c.027.079-.036.084-.083.1a.86.86,0,0,1-.2.01H51.932a.716.716,0,0,0-.318.044c-.673-.027-1.347-.009-2.021-.014-.16,0-.319,0-.479,0a.231.231,0,0,0-.233.115.349.349,0,0,1-.324,0,.246.246,0,0,0-.247-.118q-1.081,0-2.163,0c-.109,0-.214.03-.323.026a1.657,1.657,0,0,0-.369-.024q-1.339,0-2.677,0c-.085,0-.178.019-.249-.053" transform="translate(-40.718 -63.405)" fill="#13a0c9"/>
        <path id="Path_75257" data-name="Path 75257" d="M85.56,26.613a2.248,2.248,0,0,1,.4-.249,2.7,2.7,0,0,0,.355.009q3.689,0,7.378,0a.684.684,0,0,0,.275-.005,2.388,2.388,0,0,1,.435.274c-.024.1-.109.1-.182.105-.486,0-.972.016-1.458-.006a.666.666,0,0,0-.137-.023c-.568,0-1.136,0-1.7,0a.4.4,0,0,0-.077.011.223.223,0,0,1-.061,0,1.075,1.075,0,0,0-.247-.011q-2.342,0-4.684,0c-.106,0-.233.035-.3-.1" transform="translate(-81.967 -25.221)" fill="#09a8cd"/>
        <path id="Path_75258" data-name="Path 75258" d="M279.014,135.4q0-.248,0-.5a.372.372,0,0,1,.268-.049q1.683,0,3.366,0a1.911,1.911,0,0,0,.34-.02,3.436,3.436,0,0,1,.154.566.261.261,0,0,1-.2.05q-1.859,0-3.718,0a.276.276,0,0,1-.205-.05" transform="translate(-267.412 -129.198)" fill="#288ec0"/>
        <path id="Path_75259" data-name="Path 75259" d="M279.016,148.51h4.128c.051.095.028.205.063.3s-.018.155-.115.173a1,1,0,0,1-.185.009h-3.624a.37.37,0,0,1-.267-.05q0-.217,0-.434" transform="translate(-267.414 -142.311)" fill="#2b8bbe"/>
        <path id="Path_75260" data-name="Path 75260" d="M52.439,56.4l.158-.18c1.392.043,2.785.007,4.177.019.17,0,.34,0,.511,0q3.088,0,6.176,0a2.985,2.985,0,0,1,.372-.006.312.312,0,0,1,.131.167c0,.074-.059.075-.107.083a1.154,1.154,0,0,1-.2.007H52.747a1.138,1.138,0,0,1-.2-.007c-.048-.009-.108-.009-.107-.084" transform="translate(-50.217 -53.843)" fill="#11a2ca"/>
        <path id="Path_75261" data-name="Path 75261" d="M282.986,125.305c-.019.1-.1.069-.161.069q-1.6,0-3.208,0h-.6q0-.217,0-.434a.247.247,0,0,1,.19-.046h3.452a.372.372,0,0,1,.208.046,1.8,1.8,0,0,1,.124.366" transform="translate(-267.41 -119.672)" fill="#2591c1"/>
        <path id="Path_75262" data-name="Path 75262" d="M277.046,80.462a2.435,2.435,0,0,1,.3.457c.031.08-.023.1-.082.115a.789.789,0,0,1-.185.011h-2.649a.473.473,0,0,1-.271-.042,2.121,2.121,0,0,1-.182-.429.073.073,0,0,1,.039-.1.67.67,0,0,1,.245-.023c.882,0,1.764.007,2.646-.006a.372.372,0,0,1,.137.02" transform="translate(-262.577 -77.06)" fill="#199bc6"/>
        <path id="Path_75263" data-name="Path 75263" d="M103.3,21.3c-.03.1-.112.055-.17.055q-2.51,0-5.02,0c-.883,0-1.766,0-2.649,0-.058,0-.141.042-.168-.058a1.657,1.657,0,0,1,.367-.2c.073.018.149-.01.222.016a.475.475,0,0,0,.138.015c1.328,0,2.655,0,3.983,0,.806-.006,1.612,0,2.417,0a2.568,2.568,0,0,0,.477-.044c.154.038.25.183.4.221" transform="translate(-91.294 -20.157)" fill="#07abce"/>
        <path id="Path_75264" data-name="Path 75264" d="M277.221,92.008a.281.281,0,0,0,.179.031q1.422,0,2.844,0c.064,0,.153.038.173-.074a2.058,2.058,0,0,1,.279.51.265.265,0,0,1-.2.05q-1.519,0-3.038,0a.278.278,0,0,1-.205-.05c-.012-.082.017-.167-.02-.247a.141.141,0,0,1-.006-.219" transform="translate(-265.646 -88.105)" fill="#1c98c5"/>
        <path id="Path_75265" data-name="Path 75265" d="M49.643,60.576c.051.067.124.039.187.039q3.567,0,7.135,0,2.007,0,4.015,0c.063,0,.136.028.188-.038l.149.138c-.016.08-.084.065-.136.068-.134.007-.269,0-.4,0H49.792a1.176,1.176,0,0,1-.17,0c-.044-.006-.1-.007-.1-.073a.392.392,0,0,1,.121-.131" transform="translate(-47.421 -58.017)" fill="#12a1c9"/>
        <path id="Path_75266" data-name="Path 75266" d="M265.214,70.4a.905.905,0,0,1-.289.036q-1.39,0-2.78,0c-.146-.047-.219-.194-.354-.259-.059-.028-.147-.027-.163-.117a.321.321,0,0,1,.23-.065q1.423,0,2.846,0c.054,0,.13.036.156-.054a5.163,5.163,0,0,1,.355.455" transform="translate(-250.744 -67.002)" fill="#159ec8"/>
        <path id="Path_75267" data-name="Path 75267" d="M112.368,12.308a3.031,3.031,0,0,1,.559-.22.919.919,0,0,0,.277.011q2.478,0,4.956,0a.527.527,0,0,0,.229-.007l.559.219c.027.078-.035.085-.082.1a.749.749,0,0,1-.185.011h-6.047a.739.739,0,0,1-.185-.011c-.048-.012-.108-.021-.08-.1" transform="translate(-107.658 -11.536)" fill="#04adcf"/>
        <path id="Path_75268" data-name="Path 75268" d="M59.012,50.695c.008-.083.079-.112.133-.156a2.064,2.064,0,0,1,.325-.013h10.11a.51.51,0,0,1,.316.047l.085.065c.027.053-.006.075-.047.094a.856.856,0,0,1-.216.012H59.277a.844.844,0,0,1-.216-.012.106.106,0,0,1-.049-.038" transform="translate(-56.518 -48.381)" fill="#0fa3cb"/>
        <path id="Path_75269" data-name="Path 75269" d="M72.966,46.834l-1.489,0q-4.529,0-9.058,0c-.068,0-.146.031-.2-.037a.72.72,0,0,1,.19-.177.334.334,0,0,0,.075.038,1.042,1.042,0,0,0,.2.008h9.81a2.551,2.551,0,0,0,.31-.009c.069.045.145.083.165.175" transform="translate(-59.588 -44.641)" fill="#0ea4cb"/>
        <path id="Path_75270" data-name="Path 75270" d="M68.21,42.989a.321.321,0,0,1,.128-.114,2.94,2.94,0,0,0,.355.008q4.682,0,9.364,0a.885.885,0,0,0,.276,0,.334.334,0,0,1,.127.109c.029.074-.017.093-.075.1s-.124,0-.185,0H76.1a1.368,1.368,0,0,0-.216.009,1.142,1.142,0,0,0-.232-.009q-3.6,0-7.2,0c-.086,0-.206.05-.237-.1" transform="translate(-65.335 -41.049)" fill="#0da5cc"/>
        <path id="Path_75271" data-name="Path 75271" d="M81.293,40.174c-.034.095-.115.052-.173.052q-2.63,0-5.26,0-2.2,0-4.391,0c-.058,0-.141.042-.169-.057l.156-.117c1.265.013,2.531,0,3.8.005q2.852,0,5.7,0c.063,0,.122.019.185.014.054.031.088.09.154.1" transform="translate(-68.296 -38.343)" fill="#0ca6cc"/>
        <path id="Path_75272" data-name="Path 75272" d="M104.49,17.393c.029.1.111.057.169.057q2.8,0,5.59,0c.227,0,.454,0,.681,0,.051,0,.12.028.139-.056a1.248,1.248,0,0,1,.311.151c0,.022.026.055-.016.059a3.215,3.215,0,0,1-.351.032c-.84,0-1.679,0-2.519,0a.316.316,0,0,0-.167-.015H104.5a.335.335,0,0,1-.167-.014c-.065-.011-.141.03-.192-.043l.347-.171" transform="translate(-99.78 -16.622)" fill="#06abce"/>
        <path id="Path_75273" data-name="Path 75273" d="M279.007,104.283h3.448l.13.245a.28.28,0,0,1-.241.082c-1.054,0-2.109,0-3.163,0a.235.235,0,0,1-.174-.049q0-.14,0-.279" transform="translate(-267.405 -99.914)" fill="#1f96c4"/>
        <path id="Path_75274" data-name="Path 75274" d="M283.3,166.232c-.021.1-.1.067-.163.067q-1.65,0-3.3,0h-.821q0-.109,0-.217a.275.275,0,0,1,.2-.05q1.918,0,3.836,0a.264.264,0,0,1,.2.05.173.173,0,0,1,.039.149" transform="translate(-267.415 -159.108)" fill="#3087bc"/>
        <path id="Path_75275" data-name="Path 75275" d="M84.741,37.75c-.049.058-.116.033-.175.033q-2.117,0-4.235,0-2.55,0-5.1,0c-.059,0-.139.042-.175-.05.04-.035.069-.083.124-.1a2.025,2.025,0,0,0,.293.013h8.883a1.821,1.821,0,0,1,.262.014Z" transform="translate(-71.898 -36.023)" fill="#0ba7cc"/>
        <path id="Path_75276" data-name="Path 75276" d="M87.5,35.671a.316.316,0,0,1-.164.033c-.769.008-1.539.013-2.308.007-2.252-.015-4.5,0-6.757-.009-.073,0-.159.032-.209-.058.039-.027.067-.069.118-.076.1-.008.2,0,.294,0h8.5a1.746,1.746,0,0,1,.4.012l.126.095" transform="translate(-74.774 -34.035)" fill="#0ba7cc"/>
        <path id="Path_75277" data-name="Path 75277" d="M90.1,33.168c-.044.054-.105.033-.159.033q-4.432,0-8.865,0c-.058,0-.126.024-.171-.041l.126-.09a3.805,3.805,0,0,0,.587.024h4.525a.619.619,0,0,1,.2.015h.031a.243.243,0,0,1,.136-.015h1.653a.243.243,0,0,1,.136.015h1.4a.355.355,0,0,0,.245-.063.307.307,0,0,1,.156.122" transform="translate(-77.504 -31.627)" fill="#0aa8cd"/>
        <path id="Path_75278" data-name="Path 75278" d="M283.263,161.628h-4.245v-.186a.371.371,0,0,1,.267-.049h3.271c.186,0,.372,0,.558,0,.057,0,.116-.009.149.054a.379.379,0,0,1,0,.187" transform="translate(-267.415 -154.653)" fill="#2e89bd"/>
        <path id="Path_75279" data-name="Path 75279" d="M59.355,64.636a.928.928,0,0,1-.274.037l-11.508,0c-.073,0-.159.033-.211-.055l.03-.034a2.688,2.688,0,0,1,.279,0H59.1a.281.281,0,0,0,.18-.031l.077.088" transform="translate(-45.35 -61.825)" fill="#13a0c9"/>
        <path id="Path_75280" data-name="Path 75280" d="M59.975,63.77c-.015.087-.084.061-.136.061-.253,0-.505,0-.758,0h-10.8c-.064,0-.135.025-.193-.027a.113.113,0,0,1,.059-.068c.044.054.105.033.16.033H59.8c.05,0,.1.016.148-.026.02,0,.029.009.033.026" transform="translate(-46.047 -61.046)" fill="#12a1c9"/>
        <path id="Path_75281" data-name="Path 75281" d="M279.011,118.286q0-.093,0-.186a.277.277,0,0,1,.205-.05q1.66,0,3.319,0a.345.345,0,0,1,.208.047l.057.149c0,.093-.079.081-.136.085-.108.006-.216,0-.325,0h-3.109a.287.287,0,0,1-.221-.046" transform="translate(-267.409 -113.11)" fill="#2293c2"/>
        <path id="Path_75282" data-name="Path 75282" d="M131.492,9.244c-.04.077-.114.058-.178.058h-5.092c-.069,0-.149.026-.192-.061a1.278,1.278,0,0,1,.342-.123.235.235,0,0,0,.2.06h4.38a.236.236,0,0,0,.2-.06,1.133,1.133,0,0,1,.341.125" transform="translate(-120.761 -8.689)" fill="#04add0"/>
        <path id="Path_75283" data-name="Path 75283" d="M279.009,110.246h3.1a1.709,1.709,0,0,0,.476-.034.427.427,0,0,1,.079.22.259.259,0,0,1-.2.05q-1.624,0-3.248,0a.276.276,0,0,1-.2-.05q0-.093,0-.186" transform="translate(-267.407 -105.598)" fill="#2095c3"/>
        <path id="Path_75284" data-name="Path 75284" d="M283.262,156.127c-.09-.048-.18,0-.27,0-1.325,0-2.65,0-3.975,0v-.155h4c.1,0,.2.013.19-.132a.915.915,0,0,1,.054.286" transform="translate(-267.414 -149.338)" fill="#2e89bd"/>
        <path id="Path_75285" data-name="Path 75285" d="M175.421,53.37a.064.064,0,0,0,.031-.062c.076.016.1.089.153.135a.322.322,0,0,1-.236.052h-6.311c-.024-.039-.033-.076.013-.106,2.056-.006,4.111,0,6.167,0a.366.366,0,0,0,.183-.015" transform="translate(-161.989 -51.05)" fill="#10a3ca"/>
        <path id="Path_75286" data-name="Path 75286" d="M279.01,115.531h3.657a.257.257,0,0,1,.076.152l-3.733,0v-.155" transform="translate(-267.408 -110.697)" fill="#2194c3"/>
        <path id="Path_75287" data-name="Path 75287" d="M74.527,45.726a.345.345,0,0,1,.195-.031q1.112,0,2.223,0c.059,0,.142.035.161-.068l.089.078c-.05.078-.129.052-.2.052H68.991q-1.008,0-2.017,0c-.059,0-.125.024-.176-.03.093-.06.192-.012.287-.012q2.993-.005,5.987,0h1.3a.29.29,0,0,1,.152.014" transform="translate(-63.981 -43.685)" fill="#0ea5cb"/>
        <path id="Path_75288" data-name="Path 75288" d="M279.011,122.839q1.8,0,3.6,0c.063,0,.136.028.187-.039l.06.132h-3.85q0-.047,0-.093" transform="translate(-267.409 -117.664)" fill="#2293c2"/>
        <path id="Path_75289" data-name="Path 75289" d="M276.857,217.522c.03.119.116.125.221.125q2.031,0,4.062,0a2.5,2.5,0,0,1-.092.5.277.277,0,0,1-.2.05q-1.895,0-3.789,0a.331.331,0,0,1-.194-.037.9.9,0,0,1,0-.632" transform="translate(-265.291 -208.465)" fill="#3f7ab6"/>
        <path id="Path_75290" data-name="Path 75290" d="M54.822,324.558a.977.977,0,0,1-.217-.214.1.1,0,0,1,.045-.037,1.952,1.952,0,0,1,.4-.013c.546,0,1.092-.01,1.638.006.019,0,.039,0,.058,0,.393-.005.786,0,1.179,0h.061q3.867,0,7.734,0c.09,0,.188-.029.266.047a.9.9,0,0,1-.221.217,1.079,1.079,0,0,1-.232.009H54.992a.713.713,0,0,1-.17-.009" transform="translate(-52.293 -310.812)" fill="#5b62aa"/>
        <path id="Path_75291" data-name="Path 75291" d="M276.456,232.485h4.185a1.716,1.716,0,0,1-.12.466.292.292,0,0,1-.206.05q-1.833,0-3.666,0c-.113,0-.236.006-.267-.147a.459.459,0,0,1,.074-.368" transform="translate(-264.883 -222.809)" fill="#4377b4"/>
        <path id="Path_75292" data-name="Path 75292" d="M96.309,355.321a2.048,2.048,0,0,1-.44-.234c-.012-.078.044-.1.1-.112a.627.627,0,0,1,.17-.012h7.413a.756.756,0,0,1,.155.009c.057.012.114.025.114.1a2.659,2.659,0,0,1-.434.245c-.133-.013-.267-.01-.4-.01q-3.137,0-6.275,0a2.815,2.815,0,0,0-.4.013" transform="translate(-91.847 -340.215)" fill="#6559a5"/>
        <path id="Path_75293" data-name="Path 75293" d="M42.68,309.348a.305.305,0,0,1-.129-.154.122.122,0,0,1,.08-.043c1.071-.009,2.141,0,3.212,0H47.72a.69.69,0,0,0,.2-.013A.574.574,0,0,1,48,309.1a.519.519,0,0,1,.229,0,3.3,3.3,0,0,0,1.1-.013.458.458,0,0,1,.228-.008.307.307,0,0,0,.165.03c1.653-.006,3.305,0,4.958,0,.09,0,.188-.022.266.05a.572.572,0,0,1-.153.188.739.739,0,0,1-.169.018q-5.89,0-11.78,0a.7.7,0,0,1-.169-.018" transform="translate(-40.738 -296.224)" fill="#5765ab"/>
        <path id="Path_75294" data-name="Path 75294" d="M94.436,350.913c-.044-.085-.125-.059-.193-.059H86.67c-.071,0-.15-.017-.185.073a2.151,2.151,0,0,1-.407-.256c.052-.059.123-.047.189-.047q4.2,0,8.393,0c.066,0,.136-.012.189.046a1.318,1.318,0,0,1-.413.243" transform="translate(-82.463 -336.056)" fill="#635ca6"/>
        <path id="Path_75295" data-name="Path 75295" d="M274.167,240.482c0,.138.09.135.189.135h3.915a1,1,0,0,1-.1.342c-.062.1-.161.08-.252.08q-1.114,0-2.229,0H274.3a.6.6,0,0,1-.229-.023c-.019-.009-.041-.023-.041-.042a.7.7,0,0,1,.137-.492" transform="translate(-262.634 -230.475)" fill="#4674b3"/>
        <path id="Path_75296" data-name="Path 75296" d="M249.588,284.7a1.942,1.942,0,0,1-.23.375.205.205,0,0,1-.119.024c-1.354-.015-2.707,0-4.061-.007a.616.616,0,0,1-.275-.029.066.066,0,0,1-.015-.107,2.463,2.463,0,0,1,.355-.32.1.1,0,0,1,.09,0,1.781,1.781,0,0,0,.309.017q1.84,0,3.681,0c.09,0,.187-.022.266.049" transform="translate(-234.678 -272.787)" fill="#526aae"/>
        <path id="Path_75297" data-name="Path 75297" d="M45.662,314.98a.349.349,0,0,1,.2-.034H57.584a.348.348,0,0,1,.2.035.515.515,0,0,1-.131.152c-.3-.019-.6-.011-.9-.011H46.784c-.331,0-.661-.008-.992.011a.463.463,0,0,1-.13-.152" transform="translate(-43.72 -301.856)" fill="#5964aa"/>
        <path id="Path_75298" data-name="Path 75298" d="M48.81,317.918a.1.1,0,0,1,.1-.061h11.55c.073,0,.16-.032.207.061a.214.214,0,0,1-.087.1.73.73,0,0,1-.231.012q-5.656,0-11.312,0a.607.607,0,0,1-.138-.015.2.2,0,0,1-.087-.1" transform="translate(-46.738 -304.642)" fill="#5964aa"/>
        <path id="Path_75299" data-name="Path 75299" d="M61.567,330.36a.4.4,0,0,1-.126-.122c-.008-.054.025-.076.07-.082a.953.953,0,0,1,.124,0q5.21,0,10.42,0c.069,0,.175-.052.194.081-.035.062-.11.073-.157.121a.414.414,0,0,1-.138-.012,5.949,5.949,0,0,0-.618-.009q-.913,0-1.825,0-3.8,0-7.607,0a.61.61,0,0,0-.169.011.46.46,0,0,1-.168.011" transform="translate(-58.845 -316.427)" fill="#5e60a8"/>
        <path id="Path_75300" data-name="Path 75300" d="M74.934,334.034c.036,0,.073,0,.095.035a.368.368,0,0,1-.128.12.633.633,0,0,1-.246.016H64.915a.838.838,0,0,1-.262-.012.318.318,0,0,1-.15-.123c.031-.05.082-.031.126-.035a.334.334,0,0,1,.167-.014h9.97a.333.333,0,0,1,.167.014" transform="translate(-61.781 -320.136)" fill="#5e60a8"/>
        <path id="Path_75301" data-name="Path 75301" d="M80.278,345.441a.59.59,0,0,1-.186-.128c-.029-.066.019-.081.064-.1a.5.5,0,0,1,.154-.014h5.5c.026,0,.052,0,.077,0,.663-.006,1.326-.007,1.989,0,.429-.008.858,0,1.287,0,.064,0,.153-.021.175.081a.5.5,0,0,1-.217.155c-1.182-.008-2.363,0-3.545,0-.181,0-.361,0-.542,0a2.031,2.031,0,0,0-.417-.015c-.511,0-1.023-.012-1.534.008a.182.182,0,0,1-.059,0,6.156,6.156,0,0,0-.618-.009c-.624,0-1.247,0-1.871,0a1.015,1.015,0,0,0-.261.02" transform="translate(-76.717 -330.859)" fill="#625ca7"/>
        <path id="Path_75302" data-name="Path 75302" d="M111.457,363.529a2.53,2.53,0,0,1-.4-.184c.01-.081.076-.09.136-.1a.751.751,0,0,1,.139,0q3.076,0,6.152,0c.1,0,.225-.04.275.1l-.37.159a.8.8,0,0,1-.245.018q-2.711,0-5.422,0a.957.957,0,0,0-.262.005" transform="translate(-106.404 -348.147)" fill="#6758a4"/>
        <path id="Path_75303" data-name="Path 75303" d="M259.255,278.578h-4.114c-.069,0-.149.024-.189-.065a.326.326,0,0,1,.272-.275c.108.01.216.012.325.012,1.2,0,2.394,0,3.591,0,.09,0,.188-.023.265.052l-.149.276" transform="translate(-244.346 -266.667)" fill="#4f6daf"/>
        <path id="Path_75304" data-name="Path 75304" d="M273.336,257.542a.981.981,0,0,1-.113.281.316.316,0,0,1-.207.048q-1.825,0-3.649,0a.489.489,0,0,1-.255-.049c-.065-.127-.019-.241.132-.331,1.291,0,2.581,0,3.872,0a.289.289,0,0,1,.22.049" transform="translate(-257.891 -246.78)" fill="#4a71b1"/>
        <path id="Path_75305" data-name="Path 75305" d="M50.922,320.977a.348.348,0,0,1,.2-.034H62.408a.347.347,0,0,1,.2.034l-.09.095c-.582.019-1.165,0-1.747.009a2.376,2.376,0,0,0-.324.009.182.182,0,0,1-.059,0c-.635-.018-1.269-.017-1.9,0a.186.186,0,0,1-.06,0,1.108,1.108,0,0,0-.2-.008H51.3a1.3,1.3,0,0,0-.2.008l-.056.021-.126-.132" transform="translate(-48.763 -307.605)" fill="#5b62aa"/>
        <path id="Path_75306" data-name="Path 75306" d="M276.078,252.269h-3.909a.355.355,0,0,1-.211-.031.171.171,0,0,1,.081-.22l3.986,0a.275.275,0,0,0,.149-.031l-.1.279" transform="translate(-260.634 -241.506)" fill="#4873b2"/>
        <path id="Path_75307" data-name="Path 75307" d="M68.136,337.471a.349.349,0,0,1,.2-.035H78.2a.313.313,0,0,1,.18.031.231.231,0,0,1-.123.117.472.472,0,0,0-.184-.01c-.315-.006-.63,0-.944,0q-3.7,0-7.392,0c-.49,0-.981-.016-1.471.008a.339.339,0,0,1-.133-.112" transform="translate(-65.264 -323.415)" fill="#5f5ea8"/>
        <path id="Path_75308" data-name="Path 75308" d="M268.021,268.84a.612.612,0,0,1-.094.184.3.3,0,0,1-.206.05q-1.838,0-3.676,0a.385.385,0,0,1-.279-.071c-.038-.134.021-.209.147-.245q1.937,0,3.874,0c.085,0,.18-.016.234.082" transform="translate(-252.784 -257.579)" fill="#4c6fb0"/>
        <path id="Path_75309" data-name="Path 75309" d="M120.808,368.946a.256.256,0,0,1,.2-.057q2.742,0,5.484,0c.085,0,.161.033.244.034a2.315,2.315,0,0,1-.5.184c-.03-.064-.088-.061-.146-.061h-4.673c-.057,0-.116,0-.146.06a3.7,3.7,0,0,1-.465-.159" transform="translate(-115.755 -353.565)" fill="#6857a4"/>
        <path id="Path_75310" data-name="Path 75310" d="M239.3,293.783c.052.065.125.036.188.036q2.015,0,4.03,0a.853.853,0,0,1,.259.034.539.539,0,0,1-.123.188,1.05,1.05,0,0,1-.278.009q-2.017,0-4.034,0a.531.531,0,0,1-.259-.028.066.066,0,0,1-.012-.113c.064-.061.123-.135.227-.126" transform="translate(-229.1 -281.569)" fill="#5468ad"/>
        <path id="Path_75311" data-name="Path 75311" d="M216.9,306.229h-3.5c-.588,0-1.176,0-1.764,0-.051,0-.12.028-.14-.055a.955.955,0,0,1,.5-.158.617.617,0,0,0,.2.009q2.259,0,4.519,0c.1,0,.212-.029.279.083a.281.281,0,0,1-.1.122" transform="translate(-202.687 -293.293)" fill="#5766ab"/>
        <path id="Path_75312" data-name="Path 75312" d="M260.3,273.7a.373.373,0,0,0,.262.063h3.9a.407.407,0,0,1-.085.19q-1.989,0-3.979,0a.864.864,0,0,1-.259-.033.207.207,0,0,1,.158-.217" transform="translate(-249.319 -262.313)" fill="#4e6daf"/>
        <path id="Path_75313" data-name="Path 75313" d="M227.618,302.417a.4.4,0,0,0-.226-.034H222.8a.4.4,0,0,1-.226-.034.483.483,0,0,1,.426-.183,1.869,1.869,0,0,0,.324.011h4.168c.09,0,.188-.022.267.049a.6.6,0,0,1-.142.19" transform="translate(-213.309 -289.602)" fill="#5667ac"/>
        <path id="Path_75314" data-name="Path 75314" d="M270.843,264.974a.377.377,0,0,0-.211-.033q-1.869,0-3.738,0c-.063,0-.136.028-.188-.038-.021-.088,0-.156.1-.178a1.822,1.822,0,0,0,.461.031l3.673,0a.587.587,0,0,1-.094.217" transform="translate(-255.606 -253.713)" fill="#4b70b1"/>
        <path id="Path_75315" data-name="Path 75315" d="M113.426,362.178a.24.24,0,0,0-.2-.059h-6.3a.241.241,0,0,0-.2.059.527.527,0,0,1-.187-.092c.028-.1.11-.058.168-.058q2.3,0,4.6,0c.718,0,1.435,0,2.153,0,.054,0,.13-.036.155.055a.5.5,0,0,1-.187.1" transform="translate(-102.074 -346.98)" fill="#6659a5"/>
        <path id="Path_75316" data-name="Path 75316" d="M71.341,339.728c.035-.061.094-.053.151-.053h9.674c.061,0,.127-.014.166.054l-.089.043c-.623.019-1.245,0-1.868.008-.288,0-.577,0-.865,0q-.993,0-1.986,0-2.432,0-4.863,0a.6.6,0,0,0-.23.023l-.09-.076" transform="translate(-68.336 -325.56)" fill="#5f5ea8"/>
        <path id="Path_75317" data-name="Path 75317" d="M236.547,299.186H231.94c-.069,0-.148.024-.2-.053a.245.245,0,0,1,.264-.139.452.452,0,0,0,.242.038q2.078,0,4.157,0c.072,0,.16-.032.208.06l-.066.094" transform="translate(-222.097 -286.561)" fill="#5468ac"/>
        <path id="Path_75318" data-name="Path 75318" d="M88.31,349.808h.031a.205.205,0,0,1,.12-.015h1.714a.206.206,0,0,1,.121.015q1.962,0,3.924,0c.059,0,.126-.024.175.033l-.024.031-4.37,0-4.4,0a.019.019,0,0,1-.021-.01c0-.065.048-.07.1-.07.862,0,1.724-.006,2.587,0a.224.224,0,0,1,.045.01" transform="translate(-81.986 -335.259)" fill="#625ca6"/>
        <path id="Path_75319" data-name="Path 75319" d="M141.731,323.556h.031a.206.206,0,0,1,.121-.015h1.769c.061,0,.127-.014.169.051l-.029.03c-.119,0-.238,0-.357,0h-7.663c.026-.1.109-.06.166-.06.738,0,1.477,0,2.215,0h1.653a.243.243,0,0,1,.136-.015H141.6a.243.243,0,0,1,.136.015" transform="translate(-130.1 -310.094)" fill="#5b62aa"/>
        <path id="Path_75320" data-name="Path 75320" d="M70.719,330.04c-.043-.1-.13-.068-.2-.068h-10.4c-.073,0-.16-.028-.2.068l-.067-.065a.352.352,0,0,1,.2-.035H70.591a.35.35,0,0,1,.2.035l-.067.065" transform="translate(-57.315 -316.23)" fill="#5e60a8"/>
        <path id="Path_75321" data-name="Path 75321" d="M269.047,341.79c-.044-.054-.105-.033-.159-.033-.434,0-.868,0-1.3,0a.139.139,0,0,1,0-.2c.516-.014,1.032,0,1.549-.005a.221.221,0,0,1,.159.046.871.871,0,0,1-.25.188" transform="translate(-256.421 -327.362)" fill="#605ea7"/>
        <path id="Path_75322" data-name="Path 75322" d="M241.639,298.29a.368.368,0,0,0-.211-.03h-4.211c-.082,0-.167.011-.231-.058.013-.042.038-.058.081-.041a.4.4,0,0,0,.225.037h4.178a.371.371,0,0,1,.21.035l-.04.058" transform="translate(-227.124 -285.759)" fill="#5468ad"/>
        <path id="Path_75323" data-name="Path 75323" d="M247.087,341.167a12.928,12.928,0,0,0-1.433-.032c-.093,0-.185,0-.278,0a.122.122,0,0,1-.067.036,4,4,0,0,1-.909-.016.037.037,0,0,1-.017-.051q1.279,0,2.559,0c.059,0,.126-.024.174.034l-.029.028" transform="translate(-234.21 -326.927)" fill="#605ea7"/>
        <path id="Path_75324" data-name="Path 75324" d="M282.526,323.195a.373.373,0,0,0-.209-.036h-1.85c.046-.051.106-.03.16-.03.578,0,1.156,0,1.733,0a.349.349,0,0,1,.195.036l-.03.031" transform="translate(-268.804 -309.696)" fill="#5b62aa"/>
        <path id="Path_75325" data-name="Path 75325" d="M12.771,124.848v.4a.276.276,0,0,1-.206.05q-1.745,0-3.49,0a.336.336,0,0,1-.287-.083,1.75,1.75,0,0,1,.132-.371.3.3,0,0,1,.206-.049q1.72,0,3.439,0a.276.276,0,0,1,.205.05" transform="translate(-8.373 -119.579)" fill="#2591c1"/>
        <path id="Path_75326" data-name="Path 75326" d="M35.553,71.959l2.846,0a1.786,1.786,0,0,1,.46.033c-.214.146-.4.333-.616.475-.595.018-1.189,0-1.783.008-.336,0-.672,0-1.008,0-.081,0-.186.016-.2-.114a1.844,1.844,0,0,1,.3-.4" transform="translate(-33.741 -68.929)" fill="#169ec8"/>
        <path id="Path_75327" data-name="Path 75327" d="M28.544,81.673c.039.089.119.066.188.066l2.86,0a.954.954,0,0,1-.141.424.2.2,0,0,1-.054.02c-.33.02-.661.007-.991.009q-.945,0-1.889,0c-.094,0-.2.022-.263-.085a2.449,2.449,0,0,1,.29-.434" transform="translate(-27.033 -78.241)" fill="#199bc6"/>
        <path id="Path_75328" data-name="Path 75328" d="M7.944,148.567q0,.14,0,.279a.275.275,0,0,1-.2.05q-1.888,0-3.777,0c-.192,0-.212-.018-.209-.151a.824.824,0,0,1,.063-.306.461.461,0,0,0,.323.078q1.768,0,3.537,0a.373.373,0,0,1,.268.049" transform="translate(-3.546 -142.243)" fill="#2b8bbe"/>
        <path id="Path_75329" data-name="Path 75329" d="M2.377,155.827c0,.069.025.108.1.1.036,0,.072,0,.108,0H6.567q0,.124,0,.248a.275.275,0,0,1-.205.05q-1.921,0-3.841,0a.259.259,0,0,1-.2-.05,1.043,1.043,0,0,1,.06-.349" transform="translate(-2.17 -149.325)" fill="#2d89bd"/>
        <path id="Path_75330" data-name="Path 75330" d="M18.908,108.157q0,.14,0,.279a.276.276,0,0,1-.2.05q-1.654,0-3.309,0a.264.264,0,0,1-.2-.05l.182-.371a1.327,1.327,0,0,0,.4.043q1.443,0,2.885,0a.349.349,0,0,1,.252.049" transform="translate(-14.51 -103.54)" fill="#2095c3"/>
        <path id="Path_75331" data-name="Path 75331" d="M7.017,134.945a1.773,1.773,0,0,0,.492.034H11q0,.124,0,.248a.215.215,0,0,1-.159.049c-1.054,0-2.108.006-3.161,0a.413.413,0,0,1-.061-.007,1.563,1.563,0,0,0-.54-.014c-.057.009-.109.006-.138-.055l.076-.252" transform="translate(-6.602 -129.307)" fill="#278fc0"/>
        <path id="Path_75332" data-name="Path 75332" d="M23.113,102.472H19.8c-.084,0-.181.024-.219-.091a.438.438,0,0,1,.112-.223.233.233,0,0,1,.12-.023c1.012.017,2.025,0,3.037.008a.373.373,0,0,1,.267.05q0,.14,0,.279" transform="translate(-18.715 -97.855)" fill="#1e97c4"/>
        <path id="Path_75333" data-name="Path 75333" d="M1.6,164.26h4.25q0,.109,0,.217H1.569a.436.436,0,0,1,.029-.217" transform="translate(-1.451 -157.408)" fill="#2f88bd"/>
        <path id="Path_75334" data-name="Path 75334" d="M9.412,145.179H5.478c-.091,0-.2.022-.193-.127a.163.163,0,0,1,.03-.122.189.189,0,0,1,.119-.024c1.237.013,2.475,0,3.712.007a.371.371,0,0,1,.267.05q0,.109,0,.217" transform="translate(-5.015 -138.855)" fill="#2a8cbf"/>
        <path id="Path_75335" data-name="Path 75335" d="M15.816,119.856H11.966c-.006-.082.051-.143.071-.216a.344.344,0,0,1,.223-.049c1.112,0,2.224,0,3.336,0a.3.3,0,0,1,.221.049q0,.109,0,.217" transform="translate(-11.419 -114.588)" fill="#2293c2"/>
        <path id="Path_75336" data-name="Path 75336" d="M10.065,141.255q-1.92,0-3.839,0a.849.849,0,0,1-.259-.033.37.37,0,0,1,.039-.185.184.184,0,0,0,.119.03,1.886,1.886,0,0,1,.528,0h3.412q0,.093,0,.186" transform="translate(-5.668 -135.149)" fill="#288ec0"/>
        <path id="Path_75337" data-name="Path 75337" d="M25.7,97.045q-1.575,0-3.15,0a.882.882,0,0,1-.274-.036.936.936,0,0,1,.136-.245c.33.025.66.013.99.013.686,0,1.372.005,2.058,0a.424.424,0,0,1,.241.036.152.152,0,0,1,0,.2c0,.01,0,.02,0,.031" transform="translate(-21.302 -92.708)" fill="#1c98c5"/>
        <path id="Path_75338" data-name="Path 75338" d="M28.842,92.413h-3.1c-.069,0-.149.025-.191-.062a.624.624,0,0,1,.112-.191.408.408,0,0,0,.225.037h2.953a.161.161,0,0,1,0,.217" transform="translate(-24.445 -88.292)" fill="#1b99c5"/>
        <path id="Path_75339" data-name="Path 75339" d="M17.467,117.184h-3.78l.062-.155h3.718q0,.078,0,.155" transform="translate(-13.069 -112.133)" fill="#2293c3"/>
        <path id="Path_75340" data-name="Path 75340" d="M60.954,54.638v.093H56.493c-.082,0-.168.013-.227-.065a.1.1,0,0,1,.114-.065l.043.006a.316.316,0,0,0,.167.015h4.2a.333.333,0,0,1,.167.014" transform="translate(-53.885 -52.287)" fill="#10a3ca"/>
        <path id="Path_75341" data-name="Path 75341" d="M74.527,45.728H66.8q0-.03,0-.059l.058-.041c.062.087.154.069.24.069l7.238,0c.064,0,.135-.026.192.03" transform="translate(-63.981 -43.687)" fill="#0da5cb"/>
        <path id="Path_75342" data-name="Path 75342" d="M89.253,32.48h-5.14c-.059,0-.126.024-.172-.038.017-.024.033-.049.067-.051a.416.416,0,0,0,.265.059q2.4,0,4.8,0c.059,0,.125-.024.176.03" transform="translate(-80.415 -30.998)" fill="#09a8cd"/>
        <path id="Path_75343" data-name="Path 75343" d="M2.386,220.489H6.633a.482.482,0,0,1,.031.359c0,.044-.044.067-.087.079a.5.5,0,0,1-.138.015q-1.885,0-3.77,0c-.081,0-.17.01-.22-.08a1.526,1.526,0,0,1-.063-.373" transform="translate(-2.236 -211.31)" fill="#3f7ab6"/>
        <path id="Path_75344" data-name="Path 75344" d="M6.232,235.888a1.372,1.372,0,0,1-.094-.342c.079-.071.176-.048.266-.049q1.765,0,3.531,0c.113,0,.231.01.31-.1a.041.041,0,0,1,.07.026,1.127,1.127,0,0,1,.042.484.272.272,0,0,1-.217.06q-1.844,0-3.687,0c-.082,0-.169.007-.221-.08" transform="translate(-5.833 -225.59)" fill="#4476b4"/>
        <path id="Path_75345" data-name="Path 75345" d="M22.482,279.9a1.538,1.538,0,0,1-.193-.34c.077-.075.175-.052.265-.052q1.815,0,3.631,0a2.285,2.285,0,0,0,.294-.012.091.091,0,0,1,.111.024c.075.077.155.148.222.232.04.05.066.106.007.163a.431.431,0,0,1-.227.034H22.72a.353.353,0,0,1-.238-.049" transform="translate(-21.315 -267.866)" fill="#506caf"/>
        <path id="Path_75346" data-name="Path 75346" d="M23.249,273.175c-.034.094-.115.052-.173.052q-1.921,0-3.842,0l-.217,0a1.062,1.062,0,0,1-.141-.283c.079-.071.176-.049.266-.049q1.765,0,3.53,0a1.966,1.966,0,0,0,.309-.016c.126.007.224.113.269.291" transform="translate(-18.042 -261.535)" fill="#4e6daf"/>
        <path id="Path_75347" data-name="Path 75347" d="M80.361,341.741q-2.818,0-5.636,0c-.058,0-.141-.042-.168.058a1.053,1.053,0,0,1-.248-.186c.044-.1.135-.074.211-.074.636,0,1.272,0,1.908,0h2.932c.332,0,.664-.007,1,.006a.138.138,0,0,1,0,.2" transform="translate(-71.181 -327.347)" fill="#605ea7"/>
        <path id="Path_75348" data-name="Path 75348" d="M26.958,288.64q2.081,0,4.162,0c.063,0,.136.028.189-.034a.5.5,0,0,1,.3.217.054.054,0,0,1-.015.09.62.62,0,0,1-.245.021H27.6a2.875,2.875,0,0,0-.448.018,1.292,1.292,0,0,1-.191-.309" transform="translate(-25.791 -276.604)" fill="#5269ad"/>
        <path id="Path_75349" data-name="Path 75349" d="M8.417,247.45a.3.3,0,0,0,.18.03H12.35a.366.366,0,0,0,.2-.033.21.21,0,0,1,.063.307.509.509,0,0,1-.2.023q-1.833,0-3.666,0a.327.327,0,0,1-.236-.049.969.969,0,0,1-.091-.279" transform="translate(-8.017 -237.152)" fill="#4773b2"/>
        <path id="Path_75350" data-name="Path 75350" d="M9.251,232.862c.012.163-.1.164-.214.164H5.122a.194.194,0,0,1-.035-.152c-.031-.075.025-.09.075-.1a.7.7,0,0,1,.185-.012H9a.548.548,0,0,1,.229.025.056.056,0,0,1,.025.079" transform="translate(-4.817 -223.069)" fill="#4278b4"/>
        <path id="Path_75351" data-name="Path 75351" d="M37.49,303.527a.862.862,0,0,1-.164-.216.207.207,0,0,1,.172-.052c.873,0,1.747-.007,2.62,0,.574-.006,1.148,0,1.721,0a.914.914,0,0,0,.307-.028.611.611,0,0,1,.373.113.063.063,0,0,1,.029.091c-.063.1-.163.074-.253.075H37.954a3.211,3.211,0,0,0-.464.018" transform="translate(-35.73 -290.621)" fill="#5666ac"/>
        <path id="Path_75352" data-name="Path 75352" d="M36.571,298.383l-2.8,0a.721.721,0,0,1-.154-.218.218.218,0,0,1,.206-.079q1.3,0,2.6,0a.256.256,0,0,1,.149.032.205.205,0,0,1,0,.262" transform="translate(-32.171 -285.696)" fill="#5567ac"/>
        <path id="Path_75353" data-name="Path 75353" d="M8.134,218.2q-2,0-3.995,0c-.058,0-.142-.04-.165.063a.706.706,0,0,1-.057-.25.3.3,0,0,0,.18.03c1.274,0,2.549,0,3.823,0,.151,0,.2-.043.185-.191a1.777,1.777,0,0,1,0-.216c.008-.042-.014-.093.036-.123a1.039,1.039,0,0,1,0,.682" transform="translate(-3.705 -208.466)" fill="#4278b5"/>
        <path id="Path_75354" data-name="Path 75354" d="M14.26,262.095a.729.729,0,0,1-.1-.218c.078-.073.176-.051.266-.051q1.753,0,3.507,0a.593.593,0,0,0,.3-.04.173.173,0,0,1,.13.271.655.655,0,0,1-.261.025h-3.4c-.15,0-.3,0-.449.015" transform="translate(-13.525 -250.895)" fill="#4b71b1"/>
        <path id="Path_75355" data-name="Path 75355" d="M16.537,267.651c.023-.1.107-.063.165-.063q1.937,0,3.874,0h.093c.087.042.145.092.054.186a.805.805,0,0,1-.261.02q-1.774,0-3.549,0a.961.961,0,0,1-.323-.013.2.2,0,0,1-.053-.126" transform="translate(-15.801 -256.452)" fill="#4c6fb0"/>
        <path id="Path_75356" data-name="Path 75356" d="M10.613,254.227h4.125c.055.046.072.1.021.156a.329.329,0,0,1-.222.049q-1.831,0-3.661,0a.3.3,0,0,1-.207-.049.314.314,0,0,1-.057-.157" transform="translate(-10.122 -243.651)" fill="#4773b2"/>
        <path id="Path_75357" data-name="Path 75357" d="M11.979,257.259h3.9a.321.321,0,0,0,.2-.031c.073.036.105.087.059.165a.372.372,0,0,1-.225.039c-1.251,0-2.5,0-3.754,0a.319.319,0,0,1-.122-.018.354.354,0,0,1-.055-.159" transform="translate(-11.432 -246.527)" fill="#4971b1"/>
        <path id="Path_75358" data-name="Path 75358" d="M17.818,271.493a.369.369,0,0,1,.21-.036c.7.009,1.391.005,2.086.007.623,0,1.246,0,1.87-.007a.052.052,0,0,1,.039.052c-.04.1-.127.072-.2.072h-3.96l-.044-.088" transform="translate(-17.029 -260.167)" fill="#4c6fb0"/>
        <path id="Path_75359" data-name="Path 75359" d="M41.289,307.541c.046-.094.133-.063.206-.063q2.325,0,4.649,0c.078,0,.155,0,.211-.065a.71.71,0,0,1,.428.123l-.031.034a.334.334,0,0,1-.167.014h-5a.316.316,0,0,0-.167.015l-.073,0-.052-.064" transform="translate(-39.528 -294.635)" fill="#5765ab"/>
        <path id="Path_75360" data-name="Path 75360" d="M13.32,260.194a.4.4,0,0,1,.226-.036q1.854,0,3.708,0c.059,0,.126.025.174-.034.046.005.052.029.03.065-.014.118-.1.093-.178.093H14.394l-1.04,0c-.037-.021-.022-.061-.035-.09" transform="translate(-12.717 -249.303)" fill="#4971b1"/>
        <path id="Path_75361" data-name="Path 75361" d="M35.1,295.625q-1.341,0-2.682,0a.877.877,0,0,0-.274.035.168.168,0,0,1-.064-.092c.065-.083.157-.065.243-.065h4.027a.353.353,0,0,0,.211-.027c.149-.017.208.028.2.151a.246.246,0,0,1-.175.048c-.438,0-.876,0-1.314,0a.242.242,0,0,1-.174-.049" transform="translate(-30.698 -283.186)" fill="#5369ad"/>
        <path id="Path_75362" data-name="Path 75362" d="M36.092,294.668c-.032.1-.114.054-.172.054q-2.032,0-4.064,0a.871.871,0,0,0-.274.035l-.021-.034c.062-.075.147-.062.229-.062q2.032,0,4.064,0c.059,0,.125.023.177-.029.035-.013.053,0,.062.037" transform="translate(-30.202 -282.378)" fill="#5369ad"/>
        <path id="Path_75363" data-name="Path 75363" d="M61.317,323.363q-1.9,0-3.8,0c-.059,0-.125-.024-.176.03h-.031a7.126,7.126,0,0,0-.829-.014,1.306,1.306,0,0,0-.382.014h-.031a.336.336,0,0,0-.121-.016H54.084a.145.145,0,0,0-.09.014l-.011.009-.027-.028,0-.042a.335.335,0,0,1,.167-.014q3.509,0,7.019,0c.055,0,.135-.053.17.043" transform="translate(-51.672 -309.869)" fill="#5b62aa"/>
        <path id="Path_75364" data-name="Path 75364" d="M78.6,341.1H73.8a.4.4,0,0,0-.265.061l-.033-.024c.021-.1.1-.065.163-.065q1.6,0,3.208,0H78.6c.01.007.014.014.01.021s-.007.01-.01.01" transform="translate(-70.413 -326.894)" fill="#605ea7"/>
        <path id="Path_75365" data-name="Path 75365" d="M87.542,349.462H84.992c-.064,0-.138-.02-.18.055l-.033-.023c.029-.065.086-.064.144-.064h2.505c.04,0,.084-.008.114.031" transform="translate(-81.218 -334.913)" fill="#625ca7"/>
        <path id="Path_75366" data-name="Path 75366" d="M107.22,220.755l-.062-.037-.309-.254a1.831,1.831,0,0,0-.312-.36l-.213-.3-.039-.052a.332.332,0,0,0-.086-.156l-.127-.248a.072.072,0,0,0-.03-.065l-.067-.12c.017-.048-.017-.083-.028-.124l-.087-.281-.094-.5,0-.054,0-.682H112.9l.007.619-.039.331-.129.5-.081.22a1.152,1.152,0,0,0-.127.279.531.531,0,0,0-.1.178.63.63,0,0,0-.121.193l-.158.217a1.4,1.4,0,0,0-.215.246l-.4.369-.258.187-.081.041-.217.129-.379.175-.459.133a4.143,4.143,0,0,1-1.552.023,3.348,3.348,0,0,1-.428-.123,1.833,1.833,0,0,0-.379-.149.487.487,0,0,1-.382-.219.442.442,0,0,0-.176-.12" transform="translate(-101.33 -208.465)" fill="#fefefe"/>
        <path id="Path_75367" data-name="Path 75367" d="M197.275,71.989a1.233,1.233,0,0,1,.518.376,1.346,1.346,0,0,1,.175.46l.006.219c0,.062-.007.124-.007.185,0,1.416,0,2.831,0,4.247,0,.131-.025.175-.168.174-1.028-.007-2.056,0-3.084,0-.058,0-.126.026-.17-.041-.088-.147-.035-.308-.046-.462s-.005-.327,0-.49c0-.136,0-.272,0-.408a.192.192,0,0,1,.157-.2.816.816,0,0,0,.413-.3.831.831,0,0,0,.161-.448c.017-.493.025-.985,0-1.478a1.548,1.548,0,0,0-.04-.192.778.778,0,0,0-.452-.521c-.233-.084-.244-.1-.243-.432-.007-.137,0-.274,0-.411a.222.222,0,0,1,.047-.157c-.009-.121.036-.16.167-.159.736.008,1.473.006,2.21,0,.12,0,.233.039.351.035" transform="translate(-186.392 -68.922)" fill="#fefefe"/>
        <path id="Path_75368" data-name="Path 75368" d="M105.4,72.805a1.053,1.053,0,0,1,.135-.4,1.205,1.205,0,0,1,.558-.434c.564-.069,1.131-.019,1.7-.031.288-.007.577.007.865-.005.131-.006.175.039.167.159.083.12.037.255.047.384a1.1,1.1,0,0,1,0,.182c0,.026,0,.051,0,.077,0,.248-.012.261-.243.35a.868.868,0,0,0-.492.686,7.679,7.679,0,0,0,.065,1.776.809.809,0,0,0,.506.481c.1.034.165.081.163.193,0,.137,0,.273,0,.41.005.164,0,.327,0,.491s.043.317-.045.464c-.038.062-.1.041-.155.041-1.038,0-2.077,0-3.115,0-.127,0-.152-.04-.152-.158q.006-2.038,0-4.076c0-.062,0-.124-.007-.185a2.879,2.879,0,0,1,.006-.405" transform="translate(-100.972 -68.903)" fill="#fefefe"/>
        <path id="Path_75369" data-name="Path 75369" d="M.757,184.6q0-.046,0-.092H5.069q0,.109,0,.217H.924c-.088,0-.187.018-.167-.125" transform="translate(-0.672 -176.814)" fill="#3483ba"/>
        <path id="Path_75370" data-name="Path 75370" d="M283.331,193.826v.157a.24.24,0,0,1,0,.03h-4.311q0-.093,0-.186a.275.275,0,0,1,.2-.05q.787,0,1.575,0a.283.283,0,0,1,.2.05Z" transform="translate(-267.416 -185.702)" fill="#3781b9"/>
        <path id="Path_75371" data-name="Path 75371" d="M281,190.687h-1.984V190.5H281Z" transform="translate(-267.415 -182.563)" fill="#3682ba"/>
        <path id="Path_75372" data-name="Path 75372" d="M188.253,196.577q0-.233,0-.466a.27.27,0,0,1,.31,0q0,.233,0,.466Z" transform="translate(-180.408 -187.894)" fill="#397fb8"/>
        <path id="Path_75373" data-name="Path 75373" d="M105.007,93.037q0,.2-.006.405h-.016q0-.093,0-.187,0-.109,0-.217h.025" transform="translate(-100.583 -89.134)" fill="#1e97c4"/>
        <path id="Path_75374" data-name="Path 75374" d="M188.254,76.384v-.59h.31q0,.295,0,.59a.27.27,0,0,1-.31,0" transform="translate(-180.409 -72.605)" fill="#189cc7"/>
        <path id="Path_75375" data-name="Path 75375" d="M214.917,33.812h-1.924c.035-.043.084-.031.129-.031h1.666c.045,0,.094-.013.129.031" transform="translate(-204.124 -32.33)" fill="#09a8cd"/>
        <path id="Path_75376" data-name="Path 75376" d="M108.782,22.471q1.991,0,3.983,0c.059,0,.125-.024.176.03q-1.991,0-3.983,0c-.059,0-.125.024-.176-.03" transform="translate(-104.227 -21.485)" fill="#06abce"/>
        <path id="Path_75377" data-name="Path 75377" d="M64.583,54.834q-2.178,0-4.355,0c-.059,0-.125.024-.176-.03H70.945c-.057.056-.128.03-.192.03q-3.086,0-6.171,0" transform="translate(-57.514 -52.483)" fill="#0fa3ca"/>
        <path id="Path_75378" data-name="Path 75378" d="M54.86,324.691c.035-.044.085-.029.129-.029h1.819c.045,0,.094-.013.129.031H54.86" transform="translate(-52.538 -311.167)" fill="#5b62aa"/>
        <path id="Path_75379" data-name="Path 75379" d="M105.784,324.774c.017-.01.035-.028.052-.028q.553,0,1.107,0c.017,0,.035.018.052.028Z" transform="translate(-101.353 -311.249)" fill="#5b62aa"/>
        <path id="Path_75380" data-name="Path 75380" d="M44.307,311.141c.051-.054.117-.03.176-.03h5.162c-.051.054-.117.03-.176.03H44.307" transform="translate(-42.422 -298.175)" fill="#5765ab"/>
        <path id="Path_75381" data-name="Path 75381" d="M75.37,333.616H67.548c.057-.056.128-.03.192-.03q3.815,0,7.63,0c.01.007.014.014.01.021s-.007.01-.01.01" transform="translate(-64.7 -319.719)" fill="#5e60a8"/>
        <path id="Path_75382" data-name="Path 75382" d="M256.476,333.635V333.6q1.154,0,2.307,0c.059,0,.125-.024.176.03Z" transform="translate(-245.807 -319.738)" fill="#5e60a8"/>
        <path id="Path_75383" data-name="Path 75383" d="M220.49,341.7v-.186a6.564,6.564,0,0,1,.993,0h.993v.186Z" transform="translate(-211.311 -327.301)" fill="#605ea7"/>
        <path id="Path_75384" data-name="Path 75384" d="M154.221,349.442h-1.955c.035-.043.084-.031.129-.031h1.7c.045,0,.094-.013.129.031" transform="translate(-145.911 -334.893)" fill="#625ca7"/>
        <path id="Path_75385" data-name="Path 75385" d="M61.41,323.187c-.057-.056-.128-.03-.192-.03q-3.582,0-7.164,0c.046-.051.106-.03.161-.03q3.533,0,7.066,0c.054,0,.115-.021.161.03l-.031.031" transform="translate(-51.765 -309.693)" fill="#5b62aa"/>
        <path id="Path_75386" data-name="Path 75386" d="M235.159,323.2h-1.924c.035-.043.084-.031.129-.031h1.666c.045,0,.094-.013.129.031" transform="translate(-223.528 -309.739)" fill="#5b62aa"/>
        <path id="Path_75387" data-name="Path 75387" d="M198.485,341.225H196.5v-.031h1.986Z" transform="translate(-188.313 -327.017)" fill="#605ea7"/>
        <path id="Path_75388" data-name="Path 75388" d="M10.348,140.9H9.82a.948.948,0,0,1,.528,0" transform="translate(-9.362 -134.982)" fill="#288fc0"/>
        <path id="Path_75389" data-name="Path 75389" d="M106.7,298.509l.382.219a.262.262,0,0,1-.217.058h-1.831v-.248h1.486a.282.282,0,0,0,.18-.029" transform="translate(-100.634 -286.1)" fill="#5567ac"/>
        <path id="Path_75390" data-name="Path 75390" d="M173.315,159.3c.005-.09-.065-.1-.127-.122a.833.833,0,0,1-.518-.469c.086-.12.209-.062.319-.064.019.008,0-.009.014,0a.725.725,0,0,0,.818.122c.072.005.142.02.214.024.055,0,.116,0,.141.07a.782.782,0,0,1-.438.318c-.06.02-.12.036-.113.118a.27.27,0,0,1-.31,0" transform="translate(-165.47 -152.012)" fill="#2f88bd"/>
        <path id="Path_75391" data-name="Path 75391" d="M173.067,99.608a.729.729,0,0,1,.379-.382,6.748,6.748,0,0,0,.807,0,.811.811,0,0,1,.435.52c-.089.068-.2.037-.295.053-.086-.013-.122-.09-.176-.142a.5.5,0,0,0-.686-.045.376.376,0,0,1-.173.1.925.925,0,0,1-.194-.017c-.045-.008-.108,0-.1-.083" transform="translate(-165.85 -95.066)" fill="#1e98c5"/>
        <path id="Path_75392" data-name="Path 75392" d="M204.536,116.027a3.742,3.742,0,0,1,.017.705,5.691,5.691,0,0,1-.018.859.311.311,0,0,1-.321.007,1.27,1.27,0,0,1-.017-.639c.052-.06.076.007.109.025.1.056.169.026.176-.091.009-.148,0-.3,0-.444s-.044-.291.05-.422" transform="translate(-195.661 -111.172)" fill="#298dbf"/>
        <path id="Path_75393" data-name="Path 75393" d="M204.58,111.929q0,.222-.008.445c-.159.074-.23.061-.331-.057a2.012,2.012,0,0,1-.022-.528.708.708,0,0,1,.324-.036.27.27,0,0,1,.036.176" transform="translate(-195.706 -107.074)" fill="#2294c3"/>
        <path id="Path_75394" data-name="Path 75394" d="M183.067,90.419c-.008.045-.04.054-.079.054h-.647c-.04,0-.071-.009-.08-.054.22-.037.271-.185.248-.381h.31c0,.025.006.051.007.076,0,.239,0,.239.241.3" transform="translate(-174.663 -86.26)" fill="#1b99c5"/>
        <path id="Path_75395" data-name="Path 75395" d="M188.564,184.613h-.31v-.5a.269.269,0,0,1,.31,0q0,.248,0,.5" transform="translate(-180.409 -176.395)" fill="#3682ba"/>
        <path id="Path_75396" data-name="Path 75396" d="M200.154,153.765l.314,0a.667.667,0,0,1-.167.431c-.119-.062-.26,0-.378-.067a1.932,1.932,0,0,1,.232-.366" transform="translate(-191.594 -147.348)" fill="#2e8abe"/>
        <path id="Path_75397" data-name="Path 75397" d="M188.563,175.192h-.31q0-.217,0-.435h.31v.435" transform="translate(-180.408 -167.471)" fill="#3285bb"/>
        <path id="Path_75398" data-name="Path 75398" d="M170.855,117.242c-.115.021-.237-.025-.348.034a.623.623,0,0,1-.09-.353c-.006-.474,0-.949,0-1.424a.405.405,0,0,1,.02-.089c.075.084.044.186.048.282,0,.169,0,.337,0,.506,0,.091,0,.183,0,.275,0,.172.045.2.2.135.023-.009.044-.025.071-.011a.149.149,0,0,1,.032.1,1.734,1.734,0,0,0,.065.545" transform="translate(-163.307 -110.581)" fill="#2b8cbf"/>
        <path id="Path_75399" data-name="Path 75399" d="M170.952,109.048q0-.142-.005-.284a.464.464,0,0,1,.089-.287c.089.087.217.015.313.075a2.47,2.47,0,0,1-.076.446.237.237,0,0,1-.32.05" transform="translate(-163.818 -103.935)" fill="#2195c3"/>
        <path id="Path_75400" data-name="Path 75400" d="M177.306,105.436A.929.929,0,0,1,177.4,105a.713.713,0,0,1,.36-.218.569.569,0,0,1,.624.316,1.756,1.756,0,0,1,.05.524.741.741,0,0,1,0,.528l0,.651a.75.75,0,0,1-.232.366.579.579,0,0,1-.78-.122.626.626,0,0,1-.107-.462c0-.062,0-.123-.005-.184-.082-.139-.025-.291-.041-.436a1.383,1.383,0,0,1,.041-.527" transform="translate(-169.87 -100.384)" fill="#fefefe"/>
        <path id="Path_75401" data-name="Path 75401" d="M205.626,125.83V125.3c.083.109.2.043.3.061,0,.139.007.278,0,.417,0,.062.047.159-.071.17-.1.01-.211.029-.231-.12" transform="translate(-197.062 -120.063)" fill="#2690c1"/>
        <path id="Path_75402" data-name="Path 75402" d="M171.379,120.8q0,.264,0,.528c-.068.12-.141.134-.3.061q0-.264,0-.528a.444.444,0,0,0,.3-.061" transform="translate(-163.943 -115.746)" fill="#2491c1"/>
        <path id="Path_75403" data-name="Path 75403" d="M170.89,133.615c.1-.018.219.048.3-.061q0,.217,0,.434c-.046.128-.155.1-.245.086s-.054-.107-.058-.166c-.006-.1,0-.2,0-.294" transform="translate(-163.756 -127.974)" fill="#278ec0"/>
      </g>
    </g>
  </g>
</svg>
