<svg xmlns="http://www.w3.org/2000/svg" xmlns:xlink="http://www.w3.org/1999/xlink" width="16" height="16" viewBox="0 0 16 16">
  <defs>
    <clipPath id="clip-V1_1">
      <rect width="16" height="16"/>
    </clipPath>
  </defs>
  <g id="V1_1" data-name="V1 – 1" clip-path="url(#clip-V1_1)">
    <rect width="16" height="16" fill="#fff"/>
    <circle id="Ellipse_179" data-name="Ellipse 179" cx="8" cy="8" r="8" fill="#fd7e57"/>
    <g id="Group_11988" data-name="Group 11988" transform="translate(0.818 1.19)">
      <g id="Group_11989" data-name="Group 11989" transform="translate(2.968 0.158)">
        <path id="Path_75406" data-name="Path 75406" d="M74.179,13.375c-.044-.053-.109-.039-.165-.048a4.146,4.146,0,0,1-3.164-2.3,4.094,4.094,0,0,1-.44-1.914c0-1.593-.008-3.187,0-4.78A4.145,4.145,0,0,1,72.245.812,3.95,3.95,0,0,1,74,.122c.061-.009.128,0,.178-.05h.831a.548.548,0,0,0,.23.05,4.138,4.138,0,0,1,2.7,1.576,4.2,4.2,0,0,1,.9,2.688q-.007,2.351,0,4.7a4.225,4.225,0,0,1-3.172,4.154,4.527,4.527,0,0,1-.6.107c-.02,0-.044,0-.051.026Zm.455-7.537c-1.216,0-2.433,0-3.649,0-.1,0-.136.019-.135.131.005,1.043,0,2.086,0,3.13a3.8,3.8,0,0,0,.065.749,3.65,3.65,0,0,0,1.8,2.558,3.582,3.582,0,0,0,3.72.05A3.648,3.648,0,0,0,78.387,9.1c.01-1.043,0-2.086,0-3.13,0-.112-.031-.131-.135-.131-1.208,0-2.415,0-3.623,0M72.616,5.4c.559,0,1.117,0,1.676,0,.086,0,.11-.023.108-.109-.006-.238,0-.476,0-.714a.117.117,0,0,0-.087-.133.862.862,0,0,1-.576-.827q-.007-.656,0-1.312a.867.867,0,0,1,.581-.838c.056-.022.083-.045.082-.109,0-.247,0-.494,0-.74,0-.074-.026-.088-.091-.078-.137.021-.275.031-.411.057a3.758,3.758,0,0,0-3.029,3.38c-.037.436-.007.874-.019,1.311,0,.095.028.112.116.111.55,0,1.1,0,1.65,0m4,0c.537,0,1.074,0,1.611,0,.129,0,.177-.022.171-.164-.013-.3,0-.6,0-.9a3.8,3.8,0,0,0-.07-.762,3.724,3.724,0,0,0-1.479-2.33A3.669,3.669,0,0,0,74.947.537c-.075-.007-.108,0-.106.09.006.238,0,.476,0,.714a.109.109,0,0,0,.081.123A.852.852,0,0,1,75.5,2.3c.008.437.005.875,0,1.312a.862.862,0,0,1-.576.828.116.116,0,0,0-.088.132c0,.234.006.468,0,.7,0,.1.021.124.121.123.55-.005,1.1,0,1.65,0M75.063,2.962c0-.221,0-.442,0-.662a.442.442,0,1,0-.883,0q0,.649,0,1.3a.442.442,0,1,0,.884,0c0-.212,0-.424,0-.636" transform="translate(-70.406 -0.072)" fill="#fff"/>
      </g>
    </g>
  </g>
</svg>
