<svg xmlns="http://www.w3.org/2000/svg" xmlns:xlink="http://www.w3.org/1999/xlink" width="16" height="16" viewBox="0 0 16 16">
  <defs>
    <clipPath id="clip-V1_2">
      <rect width="16" height="16"/>
    </clipPath>
  </defs>
  <g id="V1_2" data-name="V1 – 2" clip-path="url(#clip-V1_2)">
    <rect width="16" height="16" fill="#fff"/>
    <g id="Group_11988" data-name="Group 11988" transform="translate(0.818 1.19)">
      <g id="Group_11989" data-name="Group 11989" transform="translate(2.968 0.158)">
        <path id="Path_75406" data-name="Path 75406" d="M74.179,13.375c-.044-.053-.109-.039-.165-.048a4.146,4.146,0,0,1-3.164-2.3,4.094,4.094,0,0,1-.44-1.914c0-1.593-.008-3.187,0-4.78A4.145,4.145,0,0,1,72.245.812,3.95,3.95,0,0,1,74,.122c.061-.009.128,0,.178-.05h.831a.548.548,0,0,0,.23.05,4.138,4.138,0,0,1,2.7,1.576,4.2,4.2,0,0,1,.9,2.688q-.007,2.351,0,4.7a4.225,4.225,0,0,1-3.172,4.154,4.527,4.527,0,0,1-.6.107c-.02,0-.044,0-.051.026Zm.455-7.537c-1.216,0-2.433,0-3.649,0-.1,0-.136.019-.135.131.005,1.043,0,2.086,0,3.13a3.8,3.8,0,0,0,.065.749,3.65,3.65,0,0,0,1.8,2.558,3.582,3.582,0,0,0,3.72.05A3.648,3.648,0,0,0,78.387,9.1c.01-1.043,0-2.086,0-3.13,0-.112-.031-.131-.135-.131-1.208,0-2.415,0-3.623,0M72.616,5.4c.559,0,1.117,0,1.676,0,.086,0,.11-.023.108-.109-.006-.238,0-.476,0-.714a.117.117,0,0,0-.087-.133.862.862,0,0,1-.576-.827q-.007-.656,0-1.312a.867.867,0,0,1,.581-.838c.056-.022.083-.045.082-.109,0-.247,0-.494,0-.74,0-.074-.026-.088-.091-.078-.137.021-.275.031-.411.057a3.758,3.758,0,0,0-3.029,3.38c-.037.436-.007.874-.019,1.311,0,.095.028.112.116.111.55,0,1.1,0,1.65,0m4,0c.537,0,1.074,0,1.611,0,.129,0,.177-.022.171-.164-.013-.3,0-.6,0-.9a3.8,3.8,0,0,0-.07-.762,3.724,3.724,0,0,0-1.479-2.33A3.669,3.669,0,0,0,74.947.537c-.075-.007-.108,0-.106.09.006.238,0,.476,0,.714a.109.109,0,0,0,.081.123A.852.852,0,0,1,75.5,2.3c.008.437.005.875,0,1.312a.862.862,0,0,1-.576.828.116.116,0,0,0-.088.132c0,.234.006.468,0,.7,0,.1.021.124.121.123.55-.005,1.1,0,1.65,0M75.063,2.962c0-.221,0-.442,0-.662a.442.442,0,1,0-.883,0q0,.649,0,1.3a.442.442,0,1,0,.884,0c0-.212,0-.424,0-.636" transform="translate(-70.406 -0.072)" fill="#fff"/>
      </g>
    </g>
    <g id="Group_11991" data-name="Group 11991" transform="translate(0.233 0.233)">
      <g id="Group_11992" data-name="Group 11992" transform="translate(-0.233 -0.233)">
        <path id="Path_75411" data-name="Path 75411" d="M.074,54.715a2.727,2.727,0,0,0,.091-.57A7.881,7.881,0,0,1,2.675,49.5a.122.122,0,0,1,.027-.014.362.362,0,0,1,.033.194.538.538,0,0,0,.036.286c-.016.02-.031.04-.049.058a7.519,7.519,0,0,0-.9,9.613,8.229,8.229,0,0,0,1.344,1.486.851.851,0,0,0-.031.3c0,.053.017.119-.067.13a6.392,6.392,0,0,1-1.062-1.008,7.83,7.83,0,0,1-1.9-4.452c0-.029.005-.063-.032-.079Z" transform="translate(0.007 -47.365)" fill="#e42988"/>
        <path id="Path_75412" data-name="Path 75412" d="M314.2,45.715a7.314,7.314,0,0,1,1.426,1.569,7.716,7.716,0,0,1,.858,1.631,7.809,7.809,0,0,1,.494,2.153c0,.025,0,.052.03.064V52.37a2.46,2.46,0,0,0-.086.539,7.844,7.844,0,0,1-2.239,4.435,2.117,2.117,0,0,0-.263.249.583.583,0,0,1-.043-.3c0-.058.023-.124-.042-.167.048-.053.1-.108.145-.16a7.511,7.511,0,0,0,.772-9.494,8.746,8.746,0,0,0-1.122-1.291c.019-.157-.049-.327.07-.47" transform="translate(-301.092 -43.751)" fill="#59489c"/>
        <path id="Path_75413" data-name="Path 75413" d="M136.015,365.417a2.956,2.956,0,0,0-.582-.092,7.423,7.423,0,0,1-1.149-.281q0-.212,0-.424a8.069,8.069,0,0,0,1.663.349,8.62,8.62,0,0,0,1.693-.029,11.323,11.323,0,0,0,1.16-.235l0,.407a6.776,6.776,0,0,1-1.393.272c-.042.005-.094-.02-.124.033Z" transform="translate(-128.665 -349.497)" fill="#9e3b93"/>
        <path id="Path_75414" data-name="Path 75414" d="M145.5.318A6.28,6.28,0,0,1,146.673.1c.042-.005.094.019.126-.032h1.206a6.118,6.118,0,0,0,.633.091,7.631,7.631,0,0,1,1.192.287c0,.065,0,.13,0,.194s.028.165-.074.206c-.035-.008-.07-.014-.1-.025A7.638,7.638,0,0,0,147.1.5a9.131,9.131,0,0,0-1.567.224,1.472,1.472,0,0,1-.032-.4" transform="translate(-139.418 0.008)" fill="#9e3b93"/>
        <path id="Path_75415" data-name="Path 75415" d="M243.725,324.57l0-.407a.563.563,0,0,1,.069-.031,7.607,7.607,0,0,0,1.83-.846,9.336,9.336,0,0,0,1.214-.952c.065.043.039.109.042.167a.582.582,0,0,0,.043.3,8.264,8.264,0,0,1-.905.71,7.567,7.567,0,0,1-1.631.856,3.5,3.5,0,0,1-.659.208" transform="translate(-233.589 -308.955)" fill="#793f96"/>
        <path id="Path_75416" data-name="Path 75416" d="M248.664,9.64c.1-.041.07-.131.074-.206s0-.129,0-.194a9,9,0,0,1,1.145.477,8.238,8.238,0,0,1,1.5.973.491.491,0,0,1,.052.056c-.119.142-.051.312-.07.47-.293-.235-.58-.477-.894-.686a8.345,8.345,0,0,0-1.81-.888" transform="translate(-238.326 -8.781)" fill="#793f96"/>
        <path id="Path_75417" data-name="Path 75417" d="M75.2,332.882q0,.212,0,.424a7.318,7.318,0,0,1-2.067-1,3.3,3.3,0,0,1-.476-.361c.084-.012.066-.077.067-.13a.852.852,0,0,1,.031-.3,7.989,7.989,0,0,0,2.445,1.366" transform="translate(-69.58 -317.759)" fill="#c12e8b"/>
        <path id="Path_75418" data-name="Path 75418" d="M67.14,6.021a1.472,1.472,0,0,0,.032.4c-.058.02-.116.042-.175.059a7.419,7.419,0,0,0-2.011.911,9.061,9.061,0,0,0-1.149.9.537.537,0,0,1-.036-.286.361.361,0,0,0-.033-.194,7.524,7.524,0,0,1,2.29-1.449,5.35,5.35,0,0,1,1.083-.344" transform="translate(-61.058 -5.695)" fill="#c12e8b"/>
        <path id="Path_75420" data-name="Path 75420" d="M98.121,72.461a3.81,3.81,0,0,1-1.9-1.492,3.746,3.746,0,0,1-.671-2.13c-.006-1.247-.042-2.495.01-3.739a3.837,3.837,0,0,1,2.3-3.446.545.545,0,0,1,.072-.024,1.357,1.357,0,0,1,.031.429l-.173.1a3.532,3.532,0,0,0-1.811,2.736c-.018.145.03.17.163.168.443-.006.885,0,1.328,0v.4c-.458,0-.916.008-1.374,0-.119,0-.144.034-.144.147,0,1.05,0,2.1,0,3.151a3.442,3.442,0,0,0,.412,1.654,3.617,3.617,0,0,0,1.087,1.239,6.071,6.071,0,0,0,.7.4,1.093,1.093,0,0,1-.035.412" transform="translate(-91.517 -59.008)" fill="#c12e8b"/>
        <path id="Path_75421" data-name="Path 75421" d="M231.028,62.326a3.865,3.865,0,0,1,1.765,1.575,4.258,4.258,0,0,1,.566,2.348c-.018,1.093.019,2.186-.013,3.278a3.847,3.847,0,0,1-1.958,3.32c-.094.058-.2.1-.3.151-.07-.127.016-.282-.07-.406.025-.017.049-.036.076-.052a3.514,3.514,0,0,0,1.847-3.173c.012-1.03,0-2.06,0-3.089,0-.113-.024-.149-.143-.148-.489.005-.978,0-1.467,0v-.4c.478,0,.956-.009,1.434,0,.135,0,.162-.041.148-.166a3.577,3.577,0,0,0-.428-1.357A3.668,3.668,0,0,0,231,62.756a1.409,1.409,0,0,0,.03-.43" transform="translate(-221.389 -59.677)" fill="#793f96"/>
        <path id="Path_75422" data-name="Path 75422" d="M146.208,53.755a1.409,1.409,0,0,1-.03.43,4.158,4.158,0,0,0-1.252-.36c-.127-.014-.155.017-.154.14q.007,1.52,0,3.04c0,.127.042.152.158.151.53,0,1.059,0,1.589,0v.4c-.421,0-.842.006-1.263.006q-1.364,0-2.727-.006v-.4c.566,0,1.133-.006,1.7,0,.1,0,.134-.019.134-.126q-.006-1.545,0-3.09c0-.106-.03-.128-.132-.116a4,4,0,0,0-1.207.331,1.355,1.355,0,0,0-.03-.429,3.172,3.172,0,0,1,1.073-.307,3.9,3.9,0,0,1,2.065.291.821.821,0,0,1,.079.045" transform="translate(-136.568 -51.105)" fill="#9e3b93"/>
        <path id="Path_75423" data-name="Path 75423" d="M161.2,311.129c.085.125,0,.279.07.406a3.356,3.356,0,0,1-1.143.354,3.9,3.9,0,0,1-1.916-.2.245.245,0,0,1-.039-.023,1.093,1.093,0,0,0,.035-.412c.1.034.208.068.313.1a3.613,3.613,0,0,0,1.507.128,4.15,4.15,0,0,0,1.173-.354" transform="translate(-151.569 -298.213)" fill="#9e3b93"/>
      </g>
    </g>
  </g>
</svg>
